<?xml version="1.0" encoding="UTF-8"?>
<svg xmlns="http://www.w3.org/2000/svg" xmlns:xlink="http://www.w3.org/1999/xlink" width="15pt" height="15pt" viewBox="0 0 15 15" version="1.1">
<g id="surface1">
<path style=" stroke:none;fill-rule:nonzero;fill:rgb(0%,47.843137%,72.54902%);fill-opacity:1;" d="M 15 7.5 C 15 11.640625 11.640625 15 7.5 15 C 3.359375 15 0 11.640625 0 7.5 C 0 3.359375 3.359375 0 7.5 0 C 11.640625 0 15 3.359375 15 7.5 Z M 15 7.5 "/>
<path style=" stroke:none;fill-rule:nonzero;fill:rgb(94.509804%,94.901961%,94.901961%);fill-opacity:1;" d="M 11.980469 8.101562 L 11.980469 11.195312 L 10.1875 11.195312 L 10.1875 8.3125 C 10.1875 7.585938 9.929688 7.089844 9.28125 7.089844 C 8.785156 7.089844 8.492188 7.425781 8.359375 7.746094 C 8.3125 7.863281 8.300781 8.023438 8.300781 8.183594 L 8.300781 11.195312 L 6.507812 11.195312 C 6.507812 11.195312 6.53125 6.308594 6.507812 5.804688 L 8.300781 5.804688 L 8.300781 6.566406 C 8.296875 6.574219 8.292969 6.578125 8.289062 6.585938 L 8.300781 6.585938 L 8.300781 6.566406 C 8.539062 6.199219 8.964844 5.675781 9.917969 5.675781 C 11.097656 5.675781 11.980469 6.449219 11.980469 8.101562 Z M 4.632812 3.203125 C 4.019531 3.203125 3.617188 3.605469 3.617188 4.136719 C 3.617188 4.652344 4.007812 5.066406 4.609375 5.066406 L 4.621094 5.066406 C 5.246094 5.066406 5.636719 4.652344 5.636719 4.136719 C 5.625 3.605469 5.246094 3.203125 4.632812 3.203125 Z M 3.726562 11.195312 L 5.515625 11.195312 L 5.515625 5.804688 L 3.726562 5.804688 Z M 3.726562 11.195312 "/>
</g>
</svg>
